grf
version=1
nRows=12
nColumns=37
inDegrees=no
endheader
time	ground_force_1_vx	ground_force_1_vy	ground_force_1_vz	ground_force_1_px	ground_force_1_py	ground_force_1_pz	ground_moment_1_mx	ground_moment_1_my	ground_moment_1_mz	ground_force_2_vx	ground_force_2_vy	ground_force_2_vz	ground_force_2_px	ground_force_2_py	ground_force_2_pz	ground_moment_2_mx	ground_moment_2_my	ground_moment_2_mz	ground_force_3_vx	ground_force_3_vy	ground_force_3_vz	ground_force_3_px	ground_force_3_py	ground_force_3_pz	ground_moment_3_mx	ground_moment_3_my	ground_moment_3_mz	ground_force_4_vx	ground_force_4_vy	ground_force_4_vz	ground_force_4_px	ground_force_4_py	ground_force_4_pz	ground_moment_4_mx	ground_moment_4_my	ground_moment_4_mz
      3.46000000	      0.00000000	     -0.00000000	      0.00000000	      0.00000000	      0.00000000	      0.00000000	      0.00000000	      0.00000000	      0.00000000	      3.16322637	      9.61077785	   -361.83282471	   -325.14735009	  -1103.60365817	      0.00000000	      0.00000000	      0.00000000	   9277.39978144	      7.31862729	    -11.63335769	   -394.67626953	   -339.24516948	   -715.38122154	      0.00000000	     -0.00000000	     -0.00000000	  -8820.14604458	      0.00000000	     -0.00000000	      0.00000000	      0.00000000	      0.00000000	      0.00000000	      0.00000000	      0.00000000	      0.00000000
      3.47000000	      0.00000000	     -0.00000000	      0.00000000	      0.00000000	      0.00000000	      0.00000000	      0.00000000	      0.00000000	      0.00000000	      3.50948000	      9.15018845	   -361.10968018	   -325.78649221	  -1102.39664469	      0.00000000	      0.00000000	      0.00000000	   9208.26351631	      8.05274006	    -11.33495592	   -392.99179077	   -339.91167164	   -715.26096445	      0.00000000	      0.00000000	      0.00000000	  -8785.41115683	      0.00000000	     -0.00000000	      0.00000000	      0.00000000	      0.00000000	      0.00000000	      0.00000000	      0.00000000	      0.00000000
      3.48000000	      0.00000000	     -0.00000000	      0.00000000	      0.00000000	      0.00000000	      0.00000000	      0.00000000	      0.00000000	      0.00000000	      3.78162479	      9.44276237	   -360.14614868	   -325.60605711	  -1102.75594421	      0.00000000	      0.00000000	      0.00000000	   9165.44450774	      8.42261411	    -10.74089315	   -391.06927490	   -340.32129156	   -715.40751689	      0.00000000	      0.00000000	     -0.00000000	  -8607.95123457	      0.00000000	     -0.00000000	      0.00000000	      0.00000000	      0.00000000	      0.00000000	      0.00000000	      0.00000000	      0.00000000
      3.49000000	      0.00000000	     -0.00000000	      0.00000000	      0.00000000	      0.00000000	      0.00000000	      0.00000000	      0.00000000	      0.00000000	      4.42120457	      9.76505852	   -361.06665039	   -325.55207721	  -1103.80414408	      0.00000000	      0.00000000	      0.00000000	   9195.64021463	      8.89050200	    -10.61794168	   -389.65319824	   -340.48454607	   -715.05245729	      0.00000000	     -0.00000000	     -0.00000000	  -8596.83734176	      0.00000000	     -0.00000000	      0.00000000	      0.00000000	      0.00000000	      0.00000000	      0.00000000	      0.00000000	      0.00000000
      3.50000000	      0.00000000	     -0.00000000	      0.00000000	      0.00000000	      0.00000000	      0.00000000	      0.00000000	      0.00000000	      0.00000000	      4.22208881	      9.30443859	   -360.53903198	   -326.53118927	  -1103.16004750	      0.00000000	      0.00000000	      0.00000000	   9285.87485848	      9.01855950	    -10.43630011	   -390.23788452	   -341.22662937	   -714.94087695	      0.00000000	      0.00000000	     -0.00000000	  -8640.05064813	      0.00000000	     -0.00000000	      0.00000000	      0.00000000	      0.00000000	      0.00000000	      0.00000000	      0.00000000	      0.00000000
      3.51000000	      0.00000000	     -0.00000000	      0.00000000	      0.00000000	      0.00000000	      0.00000000	      0.00000000	      0.00000000	      0.00000000	      3.93487453	      8.97066116	   -361.85723877	   -327.36715711	  -1103.62391205	      0.00000000	      0.00000000	      0.00000000	   9110.07163197	      8.59545045	    -10.40305308	   -389.46633911	   -341.54246779	   -716.00128190	      0.00000000	      0.00000000	     -0.00000000	  -8565.26415874	      0.00000000	     -0.00000000	      0.00000000	      0.00000000	      0.00000000	      0.00000000	      0.00000000	      0.00000000	      0.00000000
      3.52000000	      0.00000000	     -0.00000000	      0.00000000	      0.00000000	      0.00000000	      0.00000000	      0.00000000	      0.00000000	      0.00000000	      3.90356231	     10.02062035	   -362.80963135	   -327.07532713	  -1103.40010948	      0.00000000	      0.00000000	      0.00000000	   9304.10954099	      8.76828484	    -10.38250428	   -390.02069092	   -341.32508688	   -715.54287953	      0.00000000	      0.00000000	      0.00000000	  -8652.23918072	      0.00000000	     -0.00000000	      0.00000000	      0.00000000	      0.00000000	      0.00000000	      0.00000000	      0.00000000	      0.00000000
      3.53000000	      0.00000000	     -0.00000000	      0.00000000	      0.00000000	      0.00000000	      0.00000000	      0.00000000	      0.00000000	      0.00000000	      3.18351865	     11.03850651	   -364.74090576	   -326.29125749	  -1103.34046669	      0.00000000	      0.00000000	      0.00000000	   9446.82952989	      8.69365596	    -10.96663360	   -391.01345825	   -341.82502273	   -715.76234814	      0.00000000	     -0.00000000	     -0.00000000	  -8807.92543873	      0.00000000	     -0.00000000	      0.00000000	      0.00000000	      0.00000000	      0.00000000	      0.00000000	      0.00000000	      0.00000000
      3.54000000	      0.00000000	     -0.00000000	      0.00000000	      0.00000000	      0.00000000	      0.00000000	      0.00000000	      0.00000000	      0.00000000	      2.97930932	     11.18586636	   -365.71783447	   -326.69253617	  -1103.46750817	      0.00000000	      0.00000000	      0.00000000	   9392.85480698	      8.60365202	    -10.71419410	   -392.03048706	   -342.77256062	   -715.52137788	      0.00000000	     -0.00000000	     -0.00000000	  -8762.65771902	      0.00000000	     -0.00000000	      0.00000000	      0.00000000	      0.00000000	      0.00000000	      0.00000000	      0.00000000	      0.00000000
      3.55000000	      0.00000000	     -0.00000000	      0.00000000	      0.00000000	      0.00000000	      0.00000000	      0.00000000	      0.00000000	      0.00000000	      2.46362114	     11.32870865	   -369.98757935	   -326.90977159	  -1104.11369276	      0.00000000	      0.00000000	      0.00000000	   9284.75623298	      8.26818561	    -11.00420261	   -391.43457031	   -343.02843697	   -717.20453483	      0.00000000	      0.00000000	     -0.00000000	  -8710.57548384	      0.00000000	     -0.00000000	      0.00000000	      0.00000000	      0.00000000	      0.00000000	      0.00000000	      0.00000000	      0.00000000
      3.56000000	      0.00000000	     -0.00000000	      0.00000000	      0.00000000	      0.00000000	      0.00000000	      0.00000000	      0.00000000	      0.00000000	      2.41776419	     11.31014156	   -370.50164795	   -327.65867843	  -1103.53568234	      0.00000000	      0.00000000	      0.00000000	   9257.97573010	      8.43199065	    -10.57671239	   -393.38851929	   -343.85478303	   -716.79433047	      0.00000000	      0.00000000	     -0.00000000	  -8637.05366135	      0.00000000	     -0.00000000	      0.00000000	      0.00000000	      0.00000000	      0.00000000	      0.00000000	      0.00000000	      0.00000000
      3.57000000	      0.00000000	     -0.00000000	      0.00000000	      0.00000000	      0.00000000	      0.00000000	      0.00000000	      0.00000000	      0.00000000	      2.44418931	     11.31956100	   -374.93652344	   -327.33259536	  -1104.18442966	      0.00000000	      0.00000000	      0.00000000	   9392.56125608	      8.45381455	    -10.44813516	   -395.17065430	   -345.24253188	   -716.44538437	      0.00000000	      0.00000000	     -0.00000000	  -8731.89968093	      0.00000000	     -0.00000000	      0.00000000	      0.00000000	      0.00000000	      0.00000000	      0.00000000	      0.00000000	      0.00000000
